# xmcd CD database file
#
# Track frame offsets:
#	150
#	21097
#	44505
#	76778
#
# Disc length: 1124 seconds
#
# Revision: 0
# Processed by: cddbd v1.5PL3 Copyright (c) Steve Scherf et al.
# Submitted via: CDex 1.51
#
DISCID=24046204
DTITLE=米倉千尋 - Dreamcast版ゲームソフト 「REVIVE... 〜蘇生〜」 オープニング曲
DYEAR=1999
DGENRE=Game
TTITLE0=FEEL ME
TTITLE1=Truth
TTITLE2=FEEL ME （off vocal version）
TTITLE3=Data Track
EXTD=YEAR: 1999
EXTT0=
EXTT1=
EXTT2=
EXTT3=
PLAYORDER=
